max v2;#N vpatcher 322 296 645 476;#P origin 0 -79;#P user fpic 7 6 19 20 compusition.gif 0 0 0 0. 0 0 0;#P window setfont "Sans Serif" 9.;#P window linecount 1;#P message 8 25 111 196617 © 2008 Adam Murray;#P message 34 6 73 196617 ajm overview;#P hidden newex 104 45 20 196617 t b;#P hidden message 104 63 75 196617 load ajm.about;#P hidden newex 46 95 47 196617 pcontrol;#P hidden newex 8 44 20 196617 t b;#P hidden message 7 62 94 196617 load ajm.overview;#P user panel 2 1 124 46;#X brgb 255 255 255;#X frgb 0 0 0;#X border 1;#X rounded 12;#X shadow 3;#X done;#P hidden connect 2 0 1 0;#P hidden connect 6 0 2 0;#P hidden connect 1 0 3 0;#P hidden connect 4 0 3 0;#P hidden connect 7 0 5 0;#P hidden connect 5 0 4 0;#P pop;