max v2;#N vpatcher 830 418 1155 747;#P origin 0 -22;#P outlet 201 146 15 0;#P window setfont "Sans Serif" 9.;#P window linecount 1;#P newex 201 67 60 196617 loadmess 1;#P newex 201 94 58 196617 metro 100;#P message 201 119 58 196617 busymap 1;#P newex 124 214 66 196617 prepend size;#P newex 31 255 73 196617 pvar busymap;#P newex 124 148 34 196617 zl len;#P newex 33 220 47 196617 pvar led;#P newex 63 106 62 196617 prepend set;#P newex 33 166 40 196617 accum;#P newex 33 72 55 196617 t b l 0 l;#P newex 48 140 25 196617 iter;#P user led 169 0 17 17 0 150;#P objectname led;#P newex 33 195 27 196617 >=;#P user multiSlider -1 -1 170 24 0.1 1. 8 2937 15 1 1 2 4 0 0;#M frgb 0 0 0;#M brgb 255 255 255;#M rgb2 127 127 127;#M rgb3 0 0 0;#M rgb4 75 75 75;#M rgb5 124 124 124;#M rgb6 173 173 173;#M rgb7 149 211 110;#M rgb8 187 9 201;#M rgb9 224 62 37;#M rgb10 7 114 128;#P objectname busymap;#P inlet 33 52 15 0;#P window linecount 4;#P comment 132 233 100 196617 This is needed to ensure lists of length 1 set the multislider correctly;#P fasten 6 1 11 0 22 124 22 244 36 244;#P fasten 12 0 11 0 129 244 36 244;#P connect 1 0 6 0;#P connect 6 0 7 0;#P fasten 8 0 7 0 38 137;#P connect 7 0 3 0;#P connect 3 0 9 0;#P connect 6 1 5 0;#P connect 5 0 7 1;#P fasten 10 0 3 1 129 187 55 187;#P connect 6 2 8 0;#P fasten 6 3 10 0 83 94 129 94;#P connect 10 0 12 0;#P connect 15 0 14 0;#P connect 14 0 13 0;#P connect 13 0 16 0;#P pop;