max v2;#N vpatcher 609 441 1064 671;#N comlet function sustain point;#P hidden outlet 108 122 15 0;#P window setfont "Sans Serif" 9.;#P number 82 72 27 9 1 5 3 3 0 0 0 221 221 221 222 222 222 0 0 0;#P objectname funcsustain;#N comlet sustain 1st outlet;#P hidden outlet 159 121 15 0;#N comlet multislider 1st outlet;#P hidden outlet 137 124 15 0;#N comlet function changed with mouse (4th outlet);#P hidden outlet 80 124 15 0;#P window setfont "Fixedwidth Serif" 10.;#P hidden message 299 106 76 1441802 offset \$1 0;#P hidden newex 299 79 46 1441802 * -130;#N comlet 0=function \, 1=multislider;#P hidden inlet 299 53 15 0;#N thispatcher;#Q end;#P hidden newobj 299 141 73 1441802 thispatcher;#N comlet function pts \, line format (2nd outlet);#P hidden outlet 40 122 15 0;#N comlet multislider inlet;#P hidden inlet 130 -25 15 0;#N comlet function inlet;#P hidden inlet 0 -24 15 0;#P user function 0 0 130 69 0 1 1 1;#X frgb 3 211 152;#X brgb 0 0 0;#X rgb2 120 242 170;#X rgb3 255 255 255;#X rgb4 255 255 255;#X rgb5 0 0 0;#X add 0. 0. 1;#X add 137.39 0.103448 0;#X add 220.805084 0.545455 0;#X add 284.593231 0.896552 0;#X add 417.076263 0.509091 0;#X add 500.49173 0.137931 0;#X add 579. 0. 1;#X domain 579.;#X range 0. 1.;#X done;#P objectname function;#P user multiSlider 130 72 130 15 1. 63. 1 2664 47 0 0 2 0 0 0;#M frgb 214 0 5;#M brgb 219 227 244;#M rgb2 127 127 127;#M rgb3 0 0 0;#M rgb4 37 52 91;#M rgb5 74 105 182;#M rgb6 112 158 18;#M rgb7 149 211 110;#M rgb8 187 9 201;#M rgb9 224 62 37;#M rgb10 7 114 128;#P objectname mssustain;#P user multiSlider 130 0 130 69 0. 1. 63 2681 47 0 0 2 0 60 0;#M frgb 157 255 223;#M brgb 0 0 0;#M rgb2 127 127 127;#M rgb3 0 0 0;#M rgb4 37 52 91;#M rgb5 74 105 182;#M rgb6 112 158 18;#M rgb7 149 211 110;#M rgb8 187 9 201;#M rgb9 224 62 37;#M rgb10 7 114 128;#P objectname multislider;#P window setfont "Sans Serif" 9.;#P comment 17 74 73 196617 Sustain Point;#P user panel 0 72 130 15;#X brgb 219 227 244;#X frgb 0 0 0;#X border 1;#X rounded 0;#X shadow 0;#X done;#P hidden connect 5 0 4 0;#P hidden connect 4 1 7 0;#P hidden connect 4 3 12 0;#P hidden connect 15 0 16 0;#P hidden connect 6 0 2 0;#P hidden connect 2 0 13 0;#P hidden connect 3 0 14 0;#P hidden connect 9 0 10 0;#P hidden connect 10 0 11 0;#P hidden connect 11 0 8 0;#P pop;