max v2;#N vpatcher 323 164 950 597;#P origin -97 0;#P window setfont "Sans Serif" 9.;#P comment 409 362 139 196617 signal goes from min to max;#N comlet;#P outlet 399 381 15 0;#P comment 482 70 29 196617 Max;#P comment 448 70 24 196617 Min;#N comlet max;#P inlet 484 85 15 0;#N comlet min;#P inlet 450 84 15 0;#P comment 557 69 38 196617 Width;#P comment 413 70 31 196617 Freq;#N comlet ramp/rect width (0-1);#P inlet 563 86 15 0;#P newex 26 59 119 196617 unpack 0. 0. 0. shape 0.;#P window linecount 2;#P newex 291 124 122 196617 print "ERROR in ajm.lfo. Invalid waveform shape";#P window linecount 1;#P message 265 123 14 196617 3;#P message 239 123 14 196617 2;#P message 213 123 14 196617 1;#P message 187 122 14 196617 0;#P newex 161 97 141 196617 route int sine ramp rect rand;#P newex 26 35 139 196617 patcherargs 1. 0. 1. sine 0.5;#P newex 293 188 31 196617 == 0;#P newex 249 188 31 196617 == 0;#P newex 205 188 31 196617 == 0;#P newex 161 188 31 196617 == 0;#P newex 161 160 144 196617 decode 4;#P newex 161 214 38 196617 mute~;#P newex 205 213 38 196617 mute~;#P newex 249 213 38 196617 mute~;#N vpatcher 10 59 167 274;#P window setfont "Sans Serif" 9.;#P window linecount 1;#P newex 46 109 40 196617 +~ 0.5;#P newex 46 84 41 196617 *~ 0.5;#P window linecount 0;#P newex 46 137 36 196617 pass~;#P newex 46 49 57 196617 rand~ 100;#P inlet 46 29 15 0;#P outlet 46 163 15 0;#P connect 1 0 2 0;#P connect 2 0 4 0;#P connect 4 0 5 0;#P connect 5 0 3 0;#P connect 3 0 0 0;#P pop;#P newobj 328 268 38 196617 p rand;#N vpatcher 37 176 191 366;#P inlet 96 30 15 0;#P window setfont "Sans Serif" 9.;#P window linecount 1;#P newex 50 83 56 196617 >~ 0.5;#P newex 50 58 46 196617 phasor~;#B color 5;#P window linecount 0;#P newex 50 113 36 196617 pass~;#P inlet 50 30 15 0;#P outlet 50 149 15 0;#P connect 1 0 3 0;#P connect 3 0 4 0;#P connect 4 0 2 0;#P connect 2 0 0 0;#P connect 5 0 4 1;#P pop;#P newobj 284 267 37 196617 p rect;#N vpatcher 231 378 427 595;#P window setfont "Sans Serif" 9.;#P window linecount 0;#P newex 148 61 29 196617 sig~;#P inlet 134 34 15 0;#P newex 50 60 46 196617 phasor~;#P newex 50 137 36 196617 pass~;#P window linecount 1;#P newex 50 111 94 196617 trapezoid~ 0.5 0.5;#P inlet 50 36 15 0;#P outlet 50 165 15 0;#P connect 1 0 4 0;#P connect 4 0 2 0;#P connect 2 0 3 0;#P connect 3 0 0 0;#P connect 5 0 2 1;#P connect 6 0 2 1;#P connect 5 0 2 2;#P connect 6 0 2 2;#P connect 5 0 6 0;#P pop;#P newobj 240 267 41 196617 p ramp;#N vpatcher 635 516 819 737;#P window setfont "Sans Serif" 9.;#P window linecount 0;#P newex 37 111 40 196617 +~ 0.5;#P newex 37 86 41 196617 *~ 0.5;#P newex 37 137 36 196617 pass~;#P window linecount 1;#P newex 37 61 40 196617 cycle~;#P inlet 37 38 15 0;#P outlet 37 165 15 0;#P connect 1 0 2 0;#P connect 2 0 4 0;#P connect 4 0 5 0;#P connect 5 0 3 0;#P connect 3 0 0 0;#P pop;#P newobj 196 266 36 196617 p sine;#P newex 293 214 38 196617 mute~;#N comlet frequency;#P inlet 418 87 15 0;#N comlet 0:sine 1:ramp 2:rect 3:noise;#P inlet 522 85 15 0;#N vpatcher 724 555 1015 842;#P window setfont "Sans Serif" 9.;#P window linecount 1;#P newex 118 84 29 196617 sig~;#P newex 228 81 29 196617 sig~;#P newex 29 202 44 196617 +~;#P outlet 29 232 15 0;#P newex 29 155 27 196617 *~;#P inlet 29 45 15 0;#P newex 158 122 47 196617 -~;#P comment 218 30 38 196617 Max;#P comment 116 31 38 196617 Min;#N comlet max;#P inlet 228 48 15 0;#N comlet min;#P inlet 118 45 15 0;#P window linecount 2;#P comment 168 165 92 196617 Use sig~ to handle float input;#P connect 6 0 7 0;#P connect 7 0 9 0;#P connect 9 0 8 0;#P fasten 5 0 7 1 163 145 51 145;#P connect 1 0 9 1;#P connect 1 0 11 0;#P connect 2 0 5 0;#P connect 10 0 5 0;#P connect 11 0 5 1;#P connect 1 0 5 1;#P connect 2 0 10 0;#P pop;#P newobj 399 343 47 196617 p scale~;#P comment 213 305 168 196617 signal goes from 0 to 1;#P comment 517 68 38 196617 Shape;#P connect 18 0 25 0;#P fasten 3 0 19 0 527 104 517 104 517 60 166 60;#P fasten 25 3 19 0 112 86 166 86;#P connect 19 0 13 0;#P fasten 23 0 13 0 270 144 166 144;#P fasten 22 0 13 0 244 144 166 144;#P fasten 21 0 13 0 218 144 166 144;#P fasten 20 0 13 0 192 144 166 144;#P connect 13 0 14 0;#P connect 14 0 12 0;#P connect 19 1 20 0;#P fasten 25 0 6 0 31 249 201 249;#P lcolor 7;#P fasten 4 0 6 0 423 249 201 249;#P lcolor 7;#P connect 12 0 6 0;#P connect 13 1 15 0;#P connect 15 0 11 0;#P connect 19 2 21 0;#P connect 19 3 22 0;#P fasten 25 0 7 0 31 249 245 249;#P lcolor 7;#P fasten 4 0 7 0 423 249 245 249;#P lcolor 7;#P connect 11 0 7 0;#P connect 13 2 16 0;#P connect 16 0 10 0;#P connect 19 4 23 0;#P fasten 26 0 7 1 568 259 276 259;#P lcolor 2;#P fasten 25 4 7 1 139 259 276 259;#P lcolor 2;#P fasten 25 0 8 0 31 249 289 249;#P lcolor 7;#P fasten 4 0 8 0 423 249 289 249;#P lcolor 7;#P connect 10 0 8 0;#P connect 19 5 24 0;#P connect 13 3 17 0;#P connect 17 0 5 0;#P fasten 25 4 8 1 139 259 316 259;#P lcolor 2;#P fasten 26 0 8 1 568 259 316 259;#P lcolor 2;#P fasten 25 0 9 0 31 249 333 249;#P lcolor 7;#P fasten 4 0 9 0 423 249 333 249;#P lcolor 7;#P connect 5 0 9 0;#P fasten 6 0 2 0 201 301 404 301;#P fasten 7 0 2 0 245 301 404 301;#P fasten 8 0 2 0 289 301 404 301;#P fasten 9 0 2 0 333 300 404 300;#P connect 2 0 33 0;#P fasten 29 0 2 1 455 320 422 320;#P lcolor 15;#P fasten 25 1 2 1 58 320 422 320;#P lcolor 15;#P fasten 30 0 2 2 489 326 440 326;#P lcolor 14;#P fasten 25 2 2 2 85 326 440 326;#P lcolor 14;#P pop;